# xmcd CD database file
# Copyright (C) 1995-1998 Ti Kan
#
# Track frame offsets:
#	150
#	12655
#	26665
#	37860
#	51825
#	68410
#	78977
#	106657
#	118515
#	129200
#	147875
#	165715
#	185270
#	199875
#	212835
#	224875
#	239280
#	251012
#	262612
#
# Disc length: 3997 seconds
#
# Revision: 1
# Processed by: cddbd v1.4PL0 Copyright (c) Steve Scherf et al.
# Submitted via: CDex 1.30Release
#
DISCID=050f9b13
DTITLE=Johny Cash, Martin Robbins - Dvorana Country 1
DYEAR=1900
DGENRE=Country
TTITLE0=Folsom Prison Blues
TTITLE1=The Long Black Veil
TTITLE2=Bury Me Not On The Lone Prairie
TTITLE3=Orange Blossom Special
TTITLE4=Girl From North Country
TTITLE5=Shantytown
TTITLE6=As Long As Grass Shall Grow
TTITLE7=Ring Of Fire
TTITLE8=Bonanza
TTITLE9=The Ballad Of Ira Hayes
TTITLE10=Big Iron
TTITLE11=El Paso
TTITLE12=Don't Worry
TTITLE13=Devil Woman
TTITLE14=Ribbon Of Darkness
TTITLE15=By The Time I Shall Get To Phoenix
TTITLE16=That's All Right
TTITLE17=Story Of My Live
TTITLE18=Feleena (From El Paso)
EXTD=ID3G:   2
EXTT0=
EXTT1=
EXTT2=
EXTT3=
EXTT4=
EXTT5=
EXTT6=
EXTT7=
EXTT8=
EXTT9=
EXTT10=
EXTT11=
EXTT12=
EXTT13=
EXTT14=
EXTT15=
EXTT16=
EXTT17=
EXTT18=
PLAYORDER=
